<?xml version="1.0" ?><!DOCTYPE svg  PUBLIC '-//W3C//DTD SVG 1.1//EN'  'http://www.w3.org/Graphics/SVG/1.1/DTD/svg11.dtd'><svg enable-background="new 0 0 128 128" height="128px" id="Layer_1" version="1.1" viewBox="0 0 128 128" width="128px" xml:space="preserve" xmlns="http://www.w3.org/2000/svg" xmlns:xlink="http://www.w3.org/1999/xlink"><path d="M84.521,81.436c-0.577,0-1.149-0.248-1.545-0.729c-4.751-5.769-11.759-9.077-19.227-9.077  c-7.226,0-14.085,3.134-18.82,8.601c-0.723,0.834-1.986,0.926-2.821,0.201c-0.835-0.724-0.925-1.986-0.202-2.822  c5.496-6.342,13.458-9.979,21.844-9.979c8.668,0,16.801,3.839,22.314,10.534c0.702,0.854,0.58,2.113-0.272,2.815  C85.419,81.287,84.968,81.436,84.521,81.436z"/><path d="M98.78,64.712c-0.549,0-1.096-0.225-1.491-0.666c-8.532-9.529-20.758-14.994-33.541-14.994  c-12.533,0-24.598,5.29-33.1,14.512c-0.749,0.811-2.013,0.864-2.826,0.114c-0.813-0.749-0.863-2.014-0.115-2.826  c9.258-10.042,22.394-15.801,36.041-15.801c13.919,0,27.23,5.951,36.521,16.325c0.736,0.823,0.667,2.087-0.156,2.824  C99.731,64.543,99.255,64.712,98.78,64.712z"/><path d="M112.047,48.984c-0.538,0-1.074-0.216-1.469-0.643C98.543,35.317,81.473,27.847,63.746,27.847  c-17.73,0-34.199,7.106-46.371,20.009c-0.759,0.805-2.025,0.84-2.827,0.083c-0.804-0.759-0.841-2.024-0.083-2.827  C27.4,31.399,44.902,23.847,63.746,23.847c18.839,0,36.979,7.938,49.77,21.78c0.75,0.812,0.7,2.077-0.111,2.827  C113.02,48.808,112.533,48.984,112.047,48.984z"/><path d="M63.969,103.207c-4.607,0-8.355-3.75-8.355-8.359c0-4.605,3.748-8.353,8.355-8.353s8.355,3.747,8.355,8.353  C72.324,99.457,68.576,103.207,63.969,103.207z M63.969,90.495c-2.401,0-4.355,1.953-4.355,4.353c0,2.404,1.954,4.359,4.355,4.359  s4.355-1.955,4.355-4.359C68.324,92.448,66.37,90.495,63.969,90.495z"/></svg>