<?xml version="1.0" ?><svg viewBox="0 0 32 32" xmlns="http://www.w3.org/2000/svg"><defs><style>.a{fill:none;stroke:#000;stroke-linecap:round;stroke-linejoin:round;}</style></defs><rect class="a" height="9.96429" rx="2.49725" width="4.99451" x="15.25" y="3.61264"/><path class="a" d="M25.62539,12.64457a2.37676,2.37676,0,0,0,1.77143-3.63343,2.70361,2.70361,0,0,0-.29-.34245v0a2.70453,2.70453,0,0,0-.34246-.29,2.37677,2.37677,0,0,0-3.63343,1.77144l.06253,2.43194Z"/><path class="a" d="M20.24451,24.98486a2.37675,2.37675,0,0,0,3.63342,1.77143,2.70287,2.70287,0,0,0,.34246-.29h0a2.70287,2.70287,0,0,0,.29-.34246A2.37676,2.37676,0,0,0,22.739,22.49038l-2.432.06253Z"/><path class="a" d="M7.53773,20.159A2.37677,2.37677,0,0,0,5.7663,23.79243a2.70291,2.70291,0,0,0,.29.34245v0a2.70453,2.70453,0,0,0,.34246.29,2.37677,2.37677,0,0,0,3.63343-1.77144l-.06253-2.43194Z"/><path class="a" d="M12.36359,7.1057A2.37676,2.37676,0,0,0,8.73016,5.33426a2.70444,2.70444,0,0,0-.34245.29v0a2.70209,2.70209,0,0,0-.29.34245A2.37676,2.37676,0,0,0,9.86912,9.60017l2.43195-.06253Z"/><rect class="a" height="9.96429" rx="2.49725" width="4.99451" x="12.47793" y="18.48058"/><rect class="a" height="9.96429" rx="2.49725" transform="translate(41.60508 -6.63805) rotate(90)" width="4.99451" x="21.62431" y="12.50137"/><rect class="a" height="9.96429" rx="2.49725" transform="translate(23.72871 5.55151) rotate(90)" width="4.99451" x="6.59135" y="9.65797"/></svg>