<?xml version="1.0" encoding="iso-8859-1"?>
<!-- Generator: Adobe Illustrator 19.0.0, SVG Export Plug-In . SVG Version: 6.00 Build 0)  -->
<svg version="1.1" id="Capa_1" xmlns="http://www.w3.org/2000/svg" xmlns:xlink="http://www.w3.org/1999/xlink" x="0px" y="0px"
	 viewBox="0 0 198 198" style="enable-background:new 0 0 198 198;" xml:space="preserve">
<g>
	<path d="M0,92.905h48.024c-0.821,35-10.748,38.973-23.216,40.107L20,133.608v38.486l5.542-0.297
		c16.281-0.916,34.281-3.851,46.29-18.676C82.359,140.125,87,118.893,87,86.3V25.905H0V92.905z"/>
	<path d="M111,25.905v67h47.383c-0.821,35-10.427,38.973-22.895,40.107L131,133.608v38.486l5.222-0.297
		c16.281-0.916,34.442-3.851,46.451-18.676C193.199,140.125,198,118.893,198,86.3V25.905H111z"/>
</g>
<g>
</g>
<g>
</g>
<g>
</g>
<g>
</g>
<g>
</g>
<g>
</g>
<g>
</g>
<g>
</g>
<g>
</g>
<g>
</g>
<g>
</g>
<g>
</g>
<g>
</g>
<g>
</g>
<g>
</g>
</svg>
